<?xml version="1.0" encoding="utf-8"?>
<!-- Generator: Adobe Illustrator 26.1.0, SVG Export Plug-In . SVG Version: 6.00 Build 0)  -->
<svg version="1.1" id="Layer_1" xmlns="http://www.w3.org/2000/svg" xmlns:xlink="http://www.w3.org/1999/xlink" x="0px" y="0px"
	 viewBox="0 0 489.3 172.9" style="enable-background:new 0 0 489.3 172.9;" xml:space="preserve">
<style type="text/css">
	.st0{fill:#000000;}
</style>
<path class="st0" d="M3.9,148.5h3.7l-3.4,14.2c-0.5,2.1-0.4,3.7,0.3,4.8s2,1.6,3.9,1.6c1.7,0.1,3.3-0.5,4.6-1.6
	c1.3-1.3,2.2-3,2.6-4.8l3.4-14.2h3.7l-3.5,14.6c-0.5,2.8-2,5.3-4.1,7.1c-2.2,1.7-4.9,2.5-7.6,2.4c-3.1,0-5.3-0.8-6.5-2.3
	s-1.4-3.9-0.6-7.1L3.9,148.5z"/>
<path class="st0" d="M22.2,171.9l5.8-24.4l11,14.3c0.3,0.4,0.6,0.8,0.9,1.3s0.6,1,0.9,1.6l3.9-16.2h3.4l-5.8,24.3l-11.3-14.6
	l-0.9-1.2c-0.3-0.4-0.5-0.9-0.7-1.4l-3.9,16.2h-3.4V171.9z"/>
<path class="st0" d="M47.9,171.9l5.6-23.4h3.7l-5.6,23.4H47.9z"/>
<path class="st0" d="M56.9,171.9l5.6-23.4h12.7l-0.8,3.2h-9l-1.4,5.8h9l-0.8,3.3h-9l-2.6,11L56.9,171.9L56.9,171.9z"/>
<path class="st0" d="M73.7,171.9l5.6-23.4H83l-5.6,23.4H73.7z"/>
<path class="st0" d="M82.8,171.9l5.6-23.4h12.7l-0.8,3.2h-9l-1.4,5.9h9l-0.8,3.3h-9l-1.8,7.6h9l-0.8,3.4H82.8z"/>
<path class="st0" d="M99.8,171.9l5.6-23.4h5c2.3-0.1,4.5,0.1,6.8,0.5c1.2,0.3,2.2,0.9,3.1,1.7c1.1,1.1,1.8,2.5,2,4
	c0.3,1.8,0.2,3.7-0.3,5.5c-0.5,2-1.2,3.8-2.3,5.5c-1,1.6-2.4,3-4,4c-1.2,0.8-2.5,1.4-3.8,1.7c-2,0.4-4,0.6-6,0.5L99.8,171.9
	L99.8,171.9z M104.3,168.4h3.1c1.3,0,2.7-0.1,4-0.4c0.9-0.2,1.7-0.6,2.5-1.2c1.1-0.8,1.9-1.7,2.6-2.9c0.7-1.2,1.3-2.6,1.6-4
	c0.3-1.3,0.4-2.6,0.3-3.9c-0.1-1.1-0.6-2-1.3-2.9c-0.5-0.6-1.2-1-2-1.2c-1.4-0.3-2.7-0.4-4.1-0.4h-2.7L104.3,168.4z"/>
<path class="st0" d="M139,161.4l-2.5,10.5H133l5.6-23.4h5.6c1.2,0,2.4,0.1,3.6,0.3c0.7,0.1,1.3,0.4,1.8,0.9c0.6,0.6,1,1.4,1.2,2.2
	c0.2,1,0.1,2-0.1,3c-0.3,1.1-0.7,2.1-1.3,3.1c-0.6,0.9-1.3,1.6-2.2,2.2c-0.7,0.4-1.5,0.7-2.3,0.9c-1.2,0.2-2.5,0.3-3.7,0.3
	L139,161.4L139,161.4z M140,158.2h0.9c1.5,0.1,2.9-0.1,4.3-0.7c0.9-0.5,1.5-1.4,1.6-2.4c0.3-1.2,0.1-2.1-0.5-2.6s-1.9-0.8-3.8-0.8
	h-0.9L140,158.2z"/>
<path class="st0" d="M163.3,171.9l-1.2-6h-9.1l-4.1,6h-3.9l16.9-24.4l5.2,24.4H163.3z M155.3,162.7h6.4l-1-5.4
	c-0.1-0.4-0.1-0.8-0.1-1.2c0-0.5-0.1-1-0.1-1.4c-0.2,0.5-0.5,1-0.8,1.4c-0.2,0.4-0.4,0.8-0.7,1.2L155.3,162.7z"/>
<path class="st0" d="M172.6,171.9l2.6-10.7l-4.6-12.7h3.9l2.9,8c0.1,0.2,0.1,0.5,0.2,0.8s0.2,0.7,0.3,1.1l0.7-1.1
	c0.2-0.3,0.5-0.6,0.7-0.9l6.8-7.8h3.7l-10.9,12.6l-2.5,10.6h-3.7L172.6,171.9z"/>
<path class="st0" d="M208,160.3c0-0.2,0.1-0.7,0.2-1.5s0.1-1.2,0.2-1.7c-0.2,0.5-0.5,1-0.8,1.6c-0.3,0.6-0.7,1.1-1.1,1.6l-8.9,12.5
	l-2.9-12.7c-0.1-0.5-0.2-1-0.3-1.5c-0.1-0.5-0.1-1-0.1-1.4c-0.1,0.5-0.3,1-0.5,1.6c-0.2,0.6-0.4,1.1-0.7,1.7l-5.2,11.5h-3.4
	l11.2-24.4l3.2,14.8c0.1,0.4,0.1,0.8,0.2,1.2c0,0.5,0.2,1.2,0.3,2c0.4-0.7,0.9-1.5,1.6-2.6c0.2-0.2,0.3-0.4,0.4-0.6l10.1-14.8
	l-0.4,24.4h-3.5L208,160.3z"/>
<path class="st0" d="M214.1,171.9l5.6-23.4h12.7l-0.8,3.2h-9l-1.4,5.9h9l-0.8,3.3h-9l-1.8,7.6h9l-0.8,3.4L214.1,171.9z"/>
<path class="st0" d="M231.1,171.9l5.8-24.4l11,14.3c0.3,0.4,0.6,0.8,0.9,1.3s0.6,1,0.9,1.6l4-16.2h3.4l-5.8,24.3L240,158.2l-0.9-1.2
	c-0.3-0.4-0.5-0.9-0.7-1.4l-3.9,16.2h-3.4V171.9z"/>
<path class="st0" d="M269,151.7l-4.8,20.1h-3.7l4.8-20.2h-6l0.8-3.3h15.8l-0.8,3.3L269,151.7z"/>
<path class="st0" d="M272.8,167.2l3.3-1.4c0,0.9,0.3,1.8,1,2.4c0.8,0.6,1.7,0.9,2.7,0.8c1,0,2-0.3,2.9-0.9c0.8-0.6,1.4-1.5,1.6-2.5
	c0.4-1.4-0.5-2.6-2.4-3.7c-0.2-0.1-0.4-0.3-0.6-0.4c-2.2-1.3-3.6-2.4-4.2-3.4c-0.6-1.1-0.7-2.5-0.4-3.7c0.4-1.9,1.5-3.5,3-4.6
	c1.5-1.2,3.4-1.8,5.4-1.8c1.4-0.1,2.8,0.3,4,1c1,0.6,1.6,1.7,1.7,2.9l-3.3,1.5c-0.2-0.6-0.6-1.2-1.1-1.6c-0.5-0.4-1.1-0.5-1.7-0.5
	c-0.9,0-1.8,0.3-2.6,0.8c-0.7,0.5-1.2,1.3-1.4,2.1c-0.4,1.4,0.6,2.7,2.9,3.9c0.1,0.1,0.3,0.2,0.4,0.2c1.6,0.7,2.9,1.8,3.9,3.1
	c0.6,1.2,0.7,2.6,0.4,3.8c-0.5,2.1-1.6,4-3.3,5.3c-1.7,1.3-3.8,2-6,2c-1.6,0.1-3.2-0.4-4.5-1.4C273.3,170.2,272.7,168.7,272.8,167.2
	z"/>
<path class="st0" d="M300.2,171.9l5.6-23.4h3.7l-5.6,23.4H300.2z"/>
<path class="st0" d="M309.3,171.9l5.8-24.4l11,14.3c0.3,0.4,0.6,0.8,0.9,1.3s0.6,1,0.9,1.6l3.9-16.2h3.4l-5.8,24.3l-11.3-14.6
	l-0.9-1.2c-0.3-0.4-0.5-0.9-0.7-1.4l-3.9,16.2h-3.4V171.9z"/>
<path class="st0" d="M347.1,151.7l-4.8,20.1h-3.7l4.8-20.2h-6l0.8-3.3h15.8l-0.8,3.3L347.1,151.7z"/>
<path class="st0" d="M351.1,171.9l5.5-23.4h12.8l-0.8,3.2h-9l-1.4,5.9h9l-0.8,3.3h-9l-1.8,7.6h9l-0.8,3.4L351.1,171.9z"/>
<path class="st0" d="M374.1,161.4l-2.5,10.4h-3.5l5.6-23.4h5.2c1.2,0,2.3,0.1,3.4,0.3c0.7,0.1,1.4,0.5,1.9,1c0.6,0.6,1,1.4,1.1,2.2
	c0.2,1,0.1,2-0.1,3c-0.3,1.7-1.2,3.2-2.4,4.4c-1.2,1.1-2.7,1.7-4.4,1.9l5.3,10.6h-4.2l-5.1-10.5L374.1,161.4z M375,158.4h0.7
	c1.4,0.1,2.8-0.1,4.1-0.7c0.8-0.6,1.4-1.5,1.6-2.5c0.3-1.3,0.2-2.2-0.4-2.7s-1.8-0.8-3.7-0.8h-0.7L375,158.4z"/>
<path class="st0" d="M386,171.9l5.6-23.4h12.7l-0.8,3.2h-9l-1.4,5.8h9l-0.8,3.3h-9l-2.6,11L386,171.9L386,171.9z"/>
<path class="st0" d="M416.7,171.9l-1.2-6h-9l-4.1,6h-3.9l16.9-24.4l5.2,24.4H416.7z M408.7,162.7h6.3l-1-5.4
	c-0.1-0.4-0.1-0.8-0.1-1.2c-0.1-0.5-0.1-1-0.1-1.4c-0.5,0.9-0.9,1.8-1.5,2.7L408.7,162.7z"/>
<path class="st0" d="M444.8,154.2c-0.8-0.9-1.8-1.6-2.9-2c-1.1-0.5-2.3-0.7-3.5-0.7c-2.4,0-4.8,0.9-6.7,2.4c-2,1.6-3.3,3.9-3.9,6.4
	c-0.7,2.1-0.4,4.4,0.8,6.3c1.2,1.7,3.1,2.6,5.2,2.4c1.4,0,2.7-0.3,4-0.8c1.5-0.5,2.8-1.3,4.1-2.2l-1,4.3c-1.1,0.7-2.4,1.3-3.7,1.6
	c-1.3,0.4-2.6,0.5-4,0.5c-1.6,0-3.2-0.3-4.6-0.9c-1.3-0.6-2.5-1.5-3.3-2.6c-0.9-1.2-1.4-2.5-1.6-3.9c-0.2-1.6-0.1-3.3,0.3-4.9
	c0.4-1.7,1.1-3.3,2-4.8c0.9-1.5,2.1-2.9,3.5-4c1.3-1.1,2.9-2,4.5-2.6c1.6-0.6,3.3-0.9,4.9-0.9c1.3,0,2.5,0.2,3.7,0.6
	c1.1,0.4,2.2,1,3.1,1.8L444.8,154.2z"/>
<path class="st0" d="M445.1,171.9l5.5-23.4h12.7l-0.8,3.2h-9l-1.4,5.9h9l-0.8,3.3h-9l-1.8,7.6h9l-0.8,3.4L445.1,171.9z"/>
<path class="st0" d="M377.5,128.1H352L387.4,0h25.5L377.5,128.1z"/>
<path class="st0" d="M364.2,4c-1.7-2.4-4.5-3.7-8.2-3.7H215.8l-6.9,25.1h127.5L329,52.3H227v-0.1h-25.5l-21.2,76.5h25.5L220,77.4
	h114.7c3.7,0,7.3-1.3,10.1-3.7c3-2.3,5.2-5.4,6.2-9.1l14.2-51.3C366.3,9.5,366,6.4,364.2,4z"/>
<path class="st0" d="M165.4,120c-1.4,5.1-6,8.6-11.3,8.6H22.6c-3.6,0-6.3-1.2-8-3.7s-2.1-5.5-1.1-9.1L45.5,0.3h25.5L42.4,103.6
	h102.1L173.2,0.3h25.5L165.4,120z"/>
<polygon class="st0" points="457,0.2 489.3,64.4 421.4,128.6 "/>
<polygon class="st0" points="434.3,0.2 466.6,64.4 398.7,128.6 "/>
</svg>
