<?xml version="1.0" encoding="utf-8"?>
<!-- Generator: Adobe Illustrator 26.1.0, SVG Export Plug-In . SVG Version: 6.00 Build 0)  -->
<svg version="1.1" id="Layer_2_00000005968517538033794860000000746303514361930152_"
	 xmlns="http://www.w3.org/2000/svg" xmlns:xlink="http://www.w3.org/1999/xlink" x="0px" y="0px" viewBox="0 0 518.6 140.9"
	 style="enable-background:new 0 0 518.6 140.9;" xml:space="preserve">
<style type="text/css">
	.st0{fill:#000000;}
</style>
<path class="st0" d="M59.9,77.2c0,7.1,3.1,10.2,9.4,10.2c2.7,0.1,5.4-0.5,7.9-1.6V58.4H59.9V77.2z"/>
<path class="st0" d="M86.6,1.9C48.7-7,10.8,16.4,1.9,54.2S16.4,130,54.2,139c37.8,8.9,75.8-14.5,84.7-52.3c0,0,0,0,0,0
	C147.8,48.8,124.4,10.8,86.6,1.9C86.6,1.9,86.6,1.9,86.6,1.9z M102.3,56c0.1,1-0.7,1.9-1.7,2c-0.1,0-0.2,0-0.3,0h-9v56.3
	c-0.1,1.3-1.1,2.3-2.4,2.4h-5.5c-3.4,0-6.2-2.7-6.3-6.1c0-0.1,0-0.1,0-0.2V97.7c-3.5,1.4-7.2,2.1-11,2c-12.7,0-20.1-8.3-20.1-22.5
	V58.4h-5.5c-2.8-0.1-5-2.3-5.1-5.1v-3.9c-0.1-1,0.7-1.9,1.7-2c0.1,0,0.2,0,0.3,0h35.7L49.7,24.9c-0.6-0.7-0.5-1.9,0.3-2.5
	c0.2-0.1,0.3-0.2,0.5-0.3l7.5-2.4c3-0.9,6.2,0,8.3,2.4L87.8,47h9.4c2.8,0.1,5.1,2.3,5.1,5.1L102.3,56z"/>
<path class="st0" d="M498.1,63.5c-13.4,0-21.2,7.5-21.2,19.7v15.3c-0.1,5.4,2.2,10.6,6.3,14.2c3.9,3.1,9,4.7,15.3,4.7
	c5.2,0.1,10.3-1.1,14.9-3.5c1.7-1,2.7-2.8,2.8-4.7c-0.2-1.4-0.7-2.8-1.6-3.9c-0.4-0.5-0.8-1.1-1.2-1.6c-0.4-0.5-1-0.8-1.6-0.8
	c-0.4,0-0.8,0.4-1.2,0.4c-3.9,2-7.5,3.1-11.4,3.1c-5.1,0-8.3-2.8-8.3-7.5l0.4-3.5v-0.4h24.8c1.3-0.1,2.3-1.1,2.4-2.4v-9.4
	C518.6,70.6,511.1,63.5,498.1,63.5z M506,86.7h-15v-3.9c0-5.1,2.8-7.9,7.5-7.9s7.5,3.2,7.5,7.9L506,86.7z"/>
<path class="st0" d="M398.2,63.5c-13.4,0-21.2,7.5-21.2,19.7v15.3c-0.1,5.4,2.2,10.6,6.3,14.2c3.9,3.2,9,4.7,15.3,4.7
	c5.2,0.1,10.4-1.1,15-3.5c1.7-1,2.8-2.8,2.8-4.7c-0.2-1.4-0.7-2.8-1.6-3.9c-0.4-0.5-0.8-1.1-1.2-1.6c-0.4-0.5-1-0.8-1.6-0.8
	c-0.4,0-0.8,0.4-1.2,0.4c-3.9,2-7.5,3.1-11.4,3.1c-5.1,0-8.3-2.8-8.3-7.5l0.4-3.5v-0.4h24.8c1.3-0.1,2.3-1.1,2.4-2.4v-9.5
	C418.7,70.6,411.2,63.5,398.2,63.5z M406.1,86.7h-15v-3.9c0-5.1,2.8-7.9,7.5-7.9s7.5,3.2,7.5,7.9V86.7z"/>
<path class="st0" d="M297.1,63.9c-13.8,0-22,7.5-22,19.7v14.6c0,12.2,8.6,19.7,22,19.7c13.8,0,22-7.5,22-19.7V83.5l0,0
	C319.1,71.4,310.9,63.9,297.1,63.9z M305.4,98.1c0,4.7-2.8,7.5-7.9,7.5s-7.9-2.8-7.9-7.5V83.5c0-5.1,2.8-7.9,7.9-7.9
	s7.9,3.2,7.9,7.9V98.1z"/>
<path class="st0" d="M447.8,45.4c-6.2,0.1-12.3,1.1-18.1,3.2c-1.4,0.4-2.3,1.7-2.4,3.2v62.5c0.1,1.3,1.1,2.3,2.4,2.4h9
	c1.3-0.1,2.3-1.1,2.4-2.4V96.5c2.7,1.1,5.7,1.7,8.6,1.6c12.6,0,22-8.7,22-21.2v-9.5C471.8,54,461.9,45.4,447.8,45.4z M458,76.5
	c0,5.9-4.3,9.4-10.2,9.4c-2.2,0.1-4.4-0.5-6.3-1.6V58.4c1.9-0.8,3.9-1.2,5.9-1.2c5.9,0,10.2,3.2,10.2,9.4h0.4L458,76.5z"/>
<path class="st0" d="M347.9,63.9c-6.2,0.1-12.3,1.1-18.1,3.2c-1.4,0.4-2.3,1.7-2.4,3.1v43.7c0.1,1.3,1.1,2.3,2.4,2.4h9
	c1.3-0.1,2.3-1.1,2.4-2.4V76.5c2.2-0.5,4.4-0.8,6.7-0.8c5.9,0,8.3,3.2,8.3,9.4v25.6c-0.1,3.2,2.5,5.8,5.7,5.9c0.1,0,0.1,0,0.2,0h5.6
	c1.3-0.1,2.3-1.1,2.4-2.4V85.1C369.9,71.4,362,63.9,347.9,63.9z"/>
<path class="st0" d="M193.7,45.4c-6.2,0.1-12.3,1.1-18.1,3.2c-1.4,0.4-2.3,1.7-2.4,3.2v62.5c0.1,1.3,1.1,2.3,2.4,2.4h9
	c1.3-0.1,2.3-1.1,2.4-2.4V96.5c2.7,1.1,5.7,1.7,8.7,1.6c12.6,0,22-8.7,22-21.2v-9.5C217.7,54,207.8,45.4,193.7,45.4z M203.9,76.5
	c0,5.9-4.3,9.4-10.2,9.4c-2.2,0.1-4.4-0.5-6.3-1.6V58.4c1.9-0.8,3.9-1.2,5.9-1.2c5.9,0,10.2,3.2,10.2,9.4h0.4V76.5z"/>
<path class="st0" d="M248.7,63.9c-3.3,0-6.6,0.6-9.8,1.6V50.9c-0.1-3.2-2.7-5.8-5.9-5.9h-5.5c-1.3,0.1-2.3,1.1-2.4,2.4v66.9
	c0.1,1.3,1.1,2.3,2.4,2.4h9.1c1.3-0.1,2.3-1.1,2.4-2.4v-37c2.1-0.8,4.4-1.2,6.6-1.2c5.9,0,8.3,2.8,8.3,9.4v25.6
	c0.4,2.8,2.8,5.5,5.9,5.5h5.5c1.3-0.1,2.3-1.1,2.4-2.4V85.1C267.6,71.7,260.6,63.9,248.7,63.9z"/>
</svg>
