<?xml version="1.0" encoding="utf-8"?>
<!-- Generator: Adobe Illustrator 26.1.0, SVG Export Plug-In . SVG Version: 6.00 Build 0)  -->
<svg version="1.1" id="layer" xmlns="http://www.w3.org/2000/svg" xmlns:xlink="http://www.w3.org/1999/xlink" x="0px" y="0px"
	 viewBox="0 0 599.8 157.4" style="enable-background:new 0 0 599.8 157.4;" xml:space="preserve">
<style type="text/css">
	.st0{fill:#000000;}
</style>
<path class="st0" d="M40,4.2L0,121.4h23.5l11.3-34.2h32.5l11.6,34.2h24L62.8,4.2H40z M61.6,67.7h-21l8.8-25.8
	c0.6-1.8,1.2-3.5,1.7-5.2c0.6,1.8,1.1,3.6,1.8,5.5L61.6,67.7z"/>
<path class="st0" d="M142.4,68c-10.8-4.3-12-6.3-12-9.4c0-4,3.3-6.4,8.7-6.4c4.8,0.1,9.6,1.4,13.7,4l4.6,2.9l6.1-18.6l-2.8-1.8
	c-5.3-3.5-13.3-5.5-21.4-5.5c-18.1,0-31.2,11.4-31.2,27.2c0,14.5,12.8,22.2,23.6,26.1s11.6,6.8,11.6,10.2c0,6.4-6.7,7.3-10.7,7.3
	c-6.2,0-12.9-2.6-16.7-4.9l-4.6-2.7l-6,18.9l2.9,1.7c6.6,3.9,15.4,6.1,24.1,6.1c19.9,0,33.3-11.2,33.3-27.8S152.3,71.7,142.4,68z"/>
<path class="st0" d="M200.9,14.6l-22.4,6.8v13.4h-12.1v19.3h12.1v38.3c0,10.7,2.1,18.3,6.6,23.4c4.4,4.7,10.9,7.4,18.5,7.4
	c4.8,0,9.5-0.7,14-2.2l3-1l-1.2-19.4l-5.2,1.5c-2.3,0.6-4.6,0.9-7,0.8c-2.7,0-6.4,0-6.4-10.9V54.1h20.3V34.8h-20.2V14.6z"/>
<path class="st0" d="M275.8,34l-4.1-0.6c-1.3-0.2-2.7-0.3-4-0.3c-7,0-13.7,2.9-18.6,8l-0.3-6.3h-21l0.3,4.5
	c0.4,6.7,0.7,14.3,0.7,24.1v58h22.7V75.6c0-1.9,0.1-3.9,0.4-5.8c1.7-9,7.3-14.6,14.9-14.6c1.3-0.1,2.6,0,3.9,0.2l5.2,1.1L275.8,34z"
	/>
<path class="st0" d="M317.1,33.2c-25.3,0-43,18.7-43,45.6c0,26.2,17.1,44.4,41.7,44.4c20.8,0,43.1-14.3,43.1-45.7
	C359,51.4,341.8,33.2,317.1,33.2z M336,78c0,15.1-8.2,26.1-19.4,26.1s-19.3-10.9-19.3-25.7c0-9.6,4.1-25.9,19.6-25.9
	C332,52.3,336,69.1,336,78z"/>
<path class="st0" d="M433.4,13.5C426,6.8,414.7,3.4,400.1,3.4c-9.3,0-18.5,0.7-27.7,2.1l-3.5,0.6v115.3h22.5V78.6
	c2.3,0.2,4.7,0.3,7.1,0.3c15.2,0,28.1-4.7,36.3-13.2c6.4-6.6,9.6-15.4,9.6-26.2C444.3,29,440.4,19.8,433.4,13.5z M421.8,40.2
	c0,16.4-14.4,18.8-23,18.8c-2.4,0-4.9-0.1-7.3-0.4V23.4c3-0.3,6-0.5,9-0.4C410.1,23,421.8,26,421.8,40.2z"/>
<path class="st0" d="M513.3,98.4V69.2c0-23.3-12.1-36-33.9-36c-10.1,0-20.7,2.8-28,7.4l-2.9,1.8l6.1,18l4.6-3.1
	c4.7-3.2,11.5-5.1,18.1-5.1c4.6-0.1,7.9,1,10.1,3.1c1.8,1.8,2.9,4.5,3.3,7.9c-17.7,0.5-30.6,4.7-38.6,12.6c-5.5,5.5-8.5,13-8.3,20.7
	c0,13.3,9.6,26.7,28.2,26.7c7.6,0.1,15-2.4,21.1-6.9l0.6,5.2h21.5l-0.8-4.9C513.6,110.6,513.2,104.5,513.3,98.4z M475.5,104.2
	c-3.4,0-9-1.2-9-9.3c-0.2-2.8,0.9-5.5,2.9-7.5c2.6-2.6,8.5-5.6,21.7-5.8v9.3c0,1-0.1,2.1-0.4,3.1
	C489.1,98.7,484.2,104.2,475.5,104.2L475.5,104.2z"/>
<path class="st0" d="M575.8,34.8l-16.5,48.7c-0.4,1.2-0.8,2.5-1.2,3.7c-0.4-1.2-0.8-2.4-1.3-3.5l-18-48.9h-24.7l31,77.7l0.1,0.2
	c0.3,0.6,0.6,1.2,0.7,1.8c-0.2,0.4-0.5,1.2-0.7,1.7c-2.7,5.7-6.7,11.1-10.7,14.3l-0.1,0.1c-3.2,2.8-6.9,4.9-11,6.1l-4,1.3l5.8,19.4
	l3.7-0.7c2.3-0.4,10.3-2.3,19.5-10c11-9.8,18.3-25.3,27.9-50.5l23.5-61.4L575.8,34.8z"/>
<path class="st0" d="M82.8,36.4c14.6-14.9,39.4-23.8,66.3-23.8c10.3-0.1,20.5,1.3,30.4,4l0.8,0.2l17.2-5.2l-7.7-3
	c-15.7-5.8-32.3-8.7-49-8.6c-25.3,0-48.9,6.1-66.4,17.2l-1.9,1.2l7.3,21.3L82.8,36.4z"/>
</svg>
