<?xml version="1.0" encoding="UTF-8"?>
<svg id="Layer_1" data-name="Layer 1" xmlns="http://www.w3.org/2000/svg" viewBox="0 0 32 32">
  <defs>
    <style>
      .cls-1 {
        fill: #000;
        stroke-width: 0px;
      }
    </style>
  </defs>
  <path class="cls-1" d="M16,32C7.18,32,0,24.82,0,16S7.18,0,16,0s16,7.18,16,16-7.18,16-16,16ZM16,1.87C8.21,1.87,1.87,8.21,1.87,16s6.34,14.13,14.13,14.13,14.13-6.34,14.13-14.13S23.79,1.87,16,1.87Z"/>
  <path class="cls-1" d="M15.91,27.59c-2.06,0-3.97-.5-5.68-1.48-1.71-.99-3.08-2.36-4.06-4.09-.98-1.72-1.48-3.67-1.48-5.79s.5-4.07,1.48-5.79c.98-1.73,2.35-3.11,4.06-4.09,1.71-.98,3.62-1.48,5.68-1.48,2.28,0,4.4.63,6.28,1.86,1.88,1.23,3.32,2.94,4.27,5.08l.34.75-5.19,1.88-.29-.66c-.5-1.15-1.21-2.03-2.19-2.68-.97-.65-2.04-.96-3.25-.96-1.68,0-3.05.57-4.21,1.73-1.15,1.16-1.71,2.59-1.71,4.37s.56,3.21,1.72,4.37c1.15,1.16,2.53,1.73,4.21,1.73,1.25,0,2.34-.34,3.32-1.02.99-.7,1.72-1.63,2.23-2.86l.27-.68,5.22,1.83-.32.75c-.93,2.21-2.37,3.99-4.28,5.29-1.91,1.3-4.07,1.96-6.42,1.96ZM15.91,6.4c-1.79,0-3.44.43-4.92,1.28-1.49.86-2.63,2.01-3.49,3.52-.85,1.49-1.28,3.19-1.28,5.04s.43,3.54,1.28,5.03c.86,1.51,2,2.66,3.49,3.52,1.47.85,3.12,1.28,4.91,1.28,2.07,0,3.88-.55,5.56-1.69,1.3-.88,2.36-2.04,3.16-3.44l.24-.43-2.31-.81-.17.3c-.58,1.04-1.36,1.91-2.3,2.57-1.23.86-2.65,1.3-4.2,1.3-2.08,0-3.86-.73-5.29-2.18-1.43-1.44-2.16-3.28-2.16-5.45s.73-4.01,2.16-5.45c1.44-1.45,3.22-2.18,5.3-2.18,1.51,0,2.89.41,4.1,1.22.93.62,1.69,1.43,2.27,2.4l.17.29,2.28-.83-.26-.43c-.79-1.32-1.84-2.42-3.1-3.25-1.65-1.08-3.43-1.61-5.43-1.61Z"/>
</svg>