<?xml version="1.0" encoding="UTF-8"?>
<svg id="Layer_1" data-name="Layer 1" xmlns="http://www.w3.org/2000/svg" viewBox="0 0 32 32">
  <defs>
    <style>
      .cls-1 {
        fill: #000;
        stroke-width: 0px;
      }
    </style>
  </defs>
  <path class="cls-1" d="M31.9,15.74l-5.01-8.68c-.14-.24-.39-.38-.66-.38-.13,0-.27.03-.38.1l-3.58,2.07c-.18.1-.3.27-.36.47-.04.14-.03.28,0,.41-1.06,0-2.75-.09-3.81-.14-.28-.01-.54-.02-.8-.02-1.93,0-3.36.33-3.81.53-.68.31-1.18.87-1.57,1.41-.19-.07-.47-.17-.89-.34-.23-.09-.77-.41-1.18-.66l.17-.29c.1-.18.13-.38.08-.58-.05-.2-.18-.36-.36-.46l-3.58-2.07c-.12-.07-.25-.1-.38-.1-.07,0-.13,0-.2.03-.2.05-.36.18-.46.36L.1,16.07c-.1.18-.13.38-.08.58.05.2.18.36.36.47l3.58,2.07c.12.07.25.1.38.1.27,0,.53-.15.66-.38l.07-.11c.17.19.35.4.51.58-.45.73-.38,1.68.19,2.35.34.4.83.65,1.36.69-.03.52.14,1.02.48,1.42.35.4.83.65,1.36.69.05,0,.1,0,.16,0s.1,0,.15,0c.03.43.19.84.48,1.17.35.4.83.65,1.36.69.05,0,.1,0,.16,0,.07,0,.14,0,.21-.01.04.41.2.79.47,1.11.38.44.93.69,1.52.69.48,0,.94-.17,1.3-.48l.52-.45,1.25.21c.36.05.65.08.91.08.58,0,1-.13,1.34-.42.32-.27.52-.65.62-1.18.08,0,.17.01.25.01.14,0,.28-.01.41-.04.56-.1,1.01-.39,1.3-.85.2-.31.29-.65.28-1.04.64,0,1.21-.3,1.62-.84.3-.4.47-.83.5-1.27.06,0,.12.02.17.02.09,0,.18.01.27.01.6,0,1.06-.21,1.35-.62.38-.54.51-1.12.38-1.74-.02-.09-.04-.18-.07-.27.23-.18.5-.41.75-.67.08-.09.16-.17.23-.25l.11.19c.1.18.27.3.46.35.07.02.13.03.2.03.13,0,.27-.04.38-.1l3.58-2.07c.18-.1.3-.27.36-.46.05-.2.03-.4-.08-.58ZM8.77,10l-4.58,7.93-2.83-1.64,4.58-7.93,2.83,1.64ZM30.64,15.97l-2.83,1.64-4.58-7.93,2.83-1.64,4.58,7.93ZM18.24,17.96c-.09.13-.12.29-.08.45.03.16.13.29.26.38.01,0,2.23,1.45,4.14,2.64.07.26.12.58-.22,1.03-.23.3-.49.37-.67.37-.13,0-.26-.03-.36-.09l-3.98-2.37c-.09-.05-.2-.08-.3-.08-.21,0-.41.11-.52.29-.17.28-.07.65.21.82l3.69,2.2v.03c.07.26.14.55,0,.78-.19.3-.52.34-.71.34-.15,0-.31-.03-.43-.08l-2.35-1.17c-.08-.04-.17-.06-.27-.06-.23,0-.44.13-.54.33-.05.1-.07.22-.06.33-.02-.03-.05-.06-.07-.08-.25-.29-.58-.5-.94-.61.22-.66.08-1.4-.38-1.93-.32-.37-.76-.61-1.24-.67.07-.56-.09-1.12-.47-1.56-.38-.44-.93-.69-1.52-.69-.48,0-.94.17-1.3.48l-.27.23c-.08-.26-.21-.5-.39-.71-.35-.4-.83-.65-1.37-.69-.05,0-.1,0-.15,0-.48,0-.94.17-1.3.48l-.22.19c-.24-.27-.52-.59-.72-.82l3.54-6.14c.43.26,1.01.6,1.32.73.25.1.46.19.64.25-.07.11-.15.21-.22.3-.64.81-.99,1.29-.95,1.76.06.67.35,1.21.86,1.58.39.28.81.4,1.1.44.15.02.3.03.44.03.18,0,.34-.02.48-.05.73-.17,1.48-.97,2.2-1.75.26-.28.51-.54.71-.73.12-.11.27-.2.44-.28.04-.02.08-.02.12-.02.05,0,.1.01.14.03l1.38.72c2.98,2.04,6.32,4.38,6.63,4.69.05.05.19.27.26.56.06.28,0,.53-.18.79-.05.07-.19.12-.38.12-.34,0-.72-.13-.84-.2-1.8-1.12-4.04-2.57-4.32-2.75-.1-.06-.21-.1-.32-.1-.2,0-.39.1-.5.27ZM16.3,24.52s.05.03.08.05l1.9.95c-.05.42-.16.6-.25.67-.11.09-.29.13-.56.13-.2,0-.44-.02-.73-.06l-.47-.08c.1-.22.17-.46.19-.71.02-.33-.03-.65-.16-.94ZM14.01,26.77c-.15.12-.33.19-.52.19-.23,0-.46-.1-.61-.28-.27-.31-.26-.77,0-1.05l1.14-.98c.13-.09.29-.14.46-.14.23,0,.46.1.61.28.14.16.21.37.19.58-.02.21-.11.41-.28.55l-.99.85ZM6.77,19.8l.66-.57c.15-.13.32-.19.52-.19v-.28s-.01.28-.01.28h.08c.22.02.41.12.55.28.14.16.21.37.19.58-.01.18-.08.34-.17.45l-.76.65-.07.07c-.14.09-.29.15-.46.15-.23,0-.46-.1-.61-.28-.29-.34-.25-.84.08-1.13ZM8.5,22l.09-.08.66-.57c.06-.05.11-.1.13-.13l1.52-1.31c.15-.12.33-.19.52-.19.23,0,.46.1.61.28.14.16.21.37.19.58-.02.21-.11.41-.28.55l-2.31,1.99c-.14.12-.32.19-.57.19h-.01c-.21-.02-.41-.11-.55-.28-.14-.16-.21-.37-.19-.58.01-.19.09-.35.17-.45ZM10.76,23.76l1.87-1.61c.14-.12.33-.19.52-.19.23,0,.46.1.61.28.14.16.21.37.19.58-.02.21-.11.41-.28.55l-.37.32s-.09.07-.13.1l-.98.85s-.09.08-.11.1l-.27.23c-.14.12-.32.19-.57.19h-.01c-.21-.02-.41-.11-.55-.28-.14-.16-.21-.37-.19-.58.02-.21.11-.41.28-.55ZM17.09,12.8c-.21-.11-.45-.17-.69-.17-.2,0-.4.04-.59.12-.3.13-.56.29-.78.49-.23.21-.49.48-.79.8-.49.52-1.22,1.31-1.6,1.39-.05.01-.13.02-.21.02s-.17,0-.25-.02c-.58-.09-.9-.41-.95-.85,0,0,.03-.08.18-.3.14-.21.34-.45.53-.7.19-.23.36-.49.54-.77.44-.66.9-1.33,1.51-1.62.24-.11,1.48-.42,3.3-.42.24,0,.49,0,.75.02,2.11.1,3.27.14,4.02.14.2,0,.36,0,.51,0l3.64,6.31c-.08.2-.36.59-.96,1.07-.96-.8-5.3-3.78-6.72-4.75l-1.44-.75Z"/>
  <path class="cls-1" d="M13.76,8.54c.09.06.21.07.28.07.29,0,.53-.16.6-.41.13-.47-.21-.68-.36-.77l-2.21-1.53c-.07-.05-.21-.15-.4-.15-.11,0-.22.03-.33.1-.17.1-.27.28-.28.49,0,.16.04.37.2.49.65.49,2.12,1.48,2.5,1.71Z"/>
  <path class="cls-1" d="M15.32,8.05c.11,0,.22-.03.3-.1.4-.28.26-.66.21-.82l-.76-2.58c-.03-.11-.12-.45-.61-.51-.18,0-.36.09-.49.25-.11.15-.16.32-.12.47.2.79.73,2.49.87,2.9.07.19.32.39.59.39Z"/>
  <path class="cls-1" d="M16.77,7.9h.06c.48-.06.55-.46.58-.63l.57-2.63c.03-.11.11-.45-.23-.7-.1-.07-.21-.11-.34-.11-.27,0-.54.18-.6.41-.2.78-.56,2.52-.63,2.97-.02.15.04.34.16.48.11.13.26.2.42.2Z"/>
  <path class="cls-1" d="M17.64,7.82c.03.18.13.32.28.4.1.05.21.08.31.08.25,0,.41-.16.52-.28l1.95-1.85c.09-.08.34-.31.2-.71-.1-.27-.37-.4-.6-.4-.14,0-.26.04-.34.12-.61.53-1.88,1.78-2.18,2.1-.11.12-.16.34-.13.53Z"/>
</svg>