<?xml version="1.0" encoding="utf-8"?>
<!-- Generator: Adobe Illustrator 24.2.1, SVG Export Plug-In . SVG Version: 6.00 Build 0)  -->
<svg version="1.1" id="Layer_1" xmlns="http://www.w3.org/2000/svg" xmlns:xlink="http://www.w3.org/1999/xlink" x="0px" y="0px"
	 viewBox="0 0 771.9 588.3" style="enable-background:new 0 0 771.9 588.3;" xml:space="preserve">
<style type="text/css">
	.st0{fill:#FFFFFF;}
</style>
<path class="st0" d="M436.6,259.3h-18.7V297h17.7c15.8,0,24.5-6.2,24.5-17.5C460.1,265.3,453.1,259.3,436.6,259.3z"/>
<path class="st0" d="M476.7,5.7C417.5,5.7,360.5,23.4,312,57c-43.7,30.2-77.8,71.2-99.5,119.2V19H5.9v552.9h206.6V414.8
	c21.7,48,55.9,89,99.5,119.2c48.5,33.6,105.5,51.3,164.7,51.3c159.8,0,289.8-130,289.8-289.8S636.5,5.7,476.7,5.7z M367.3,342.1
	c-15.5,17.7-37.3,26.7-65,26.7c-47.7,0-78.5-29-78.5-73.8c0-44.3,30.8-73,78.5-73c26.8,0,49.9,9.6,65,27.1l1.9,2.2l-31.9,25.3
	l-1.7-2.4c-6.8-9.6-18.8-15.3-32-15.3c-23.4,0-37.3,13.5-37.3,36c0,22.7,14.3,36.8,37.3,36.8c13.5,0,25.2-5.5,32-15.1l1.7-2.4
	l31.9,25.6L367.3,342.1z M461.2,366l-25.6-35.7h-17.7V366h-40.5V224.8H439c40.9,0,63.4,18.7,63.4,52.8c0,20.9-8.5,35.9-25.3,44.5
	l33.8,43.9H461.2z M560,366h-41.4V224.8H560V366z M654.4,368.9c-47.7,0-78.5-29-78.5-73.8c0-44.3,30.8-73,78.5-73
	c26.8,0,49.9,9.6,65,27.1l1.9,2.2l-31.9,25.3l-1.7-2.4c-6.8-9.6-18.8-15.3-32-15.3c-23.4,0-37.3,13.5-37.3,36
	c0,22.7,14.3,36.8,37.3,36.8c13.5,0,25.2-5.5,32-15.1l1.7-2.4l31.9,25.6l-1.9,2.2C703.9,359.9,682.1,368.9,654.4,368.9z"/>
</svg>
