<?xml version="1.0" encoding="UTF-8"?>
<svg id="Layer_1" data-name="Layer 1" xmlns="http://www.w3.org/2000/svg" viewBox="0 0 32 32">
  <defs>
    <style>
      .cls-1 {
        fill: #000;
        stroke-width: 0px;
      }
    </style>
  </defs>
  <g>
    <path class="cls-1" d="M9.1,20.24v-1.14l3.03-2.97c.29-.29.53-.55.72-.78.19-.23.34-.45.43-.66.1-.21.14-.44.14-.68,0-.28-.06-.51-.19-.71s-.3-.35-.52-.46-.47-.16-.75-.16-.54.06-.75.18c-.22.12-.38.29-.5.5-.12.22-.18.47-.18.77h-1.5c0-.55.13-1.04.38-1.44s.6-.73,1.05-.95c.44-.22.96-.34,1.53-.34s1.1.11,1.54.33.79.52,1.03.9c.25.38.37.82.37,1.3,0,.33-.06.65-.19.96-.12.31-.34.66-.66,1.05-.31.38-.75.85-1.32,1.39l-1.5,1.53v.06h3.8v1.32h-5.98Z"/>
    <path class="cls-1" d="M19.78,20.41c-.7,0-1.3-.18-1.8-.53-.5-.36-.89-.87-1.15-1.55s-.4-1.49-.4-2.44c0-.95.14-1.76.41-2.43s.65-1.18,1.16-1.53c.5-.35,1.1-.53,1.8-.53s1.3.18,1.8.53c.5.35.89.86,1.16,1.53s.4,1.48.4,2.43-.13,1.77-.4,2.44-.65,1.19-1.16,1.54c-.5.36-1.1.53-1.8.53ZM19.78,19.08c.55,0,.98-.27,1.29-.81.32-.54.47-1.33.47-2.38,0-.69-.07-1.28-.22-1.75-.15-.47-.35-.83-.61-1.07-.26-.24-.58-.36-.94-.36-.54,0-.97.27-1.29.81-.32.54-.47,1.33-.48,2.37,0,.7.07,1.28.21,1.76.14.47.35.83.61,1.07.26.24.58.36.94.36Z"/>
  </g>
  <g>
    <path class="cls-1" d="M32,16c0-1.08-.43-2.08-1.21-2.82-.58-.55-.8-1.37-.58-2.14.31-1.03.18-2.11-.36-3.04-.54-.93-1.41-1.58-2.46-1.83-.78-.19-1.38-.79-1.57-1.57-.25-1.05-.9-1.92-1.83-2.46-.59-.34-1.26-.52-1.93-.52-.37,0-.75.05-1.11.16-.2.06-.4.09-.61.09-.58,0-1.13-.24-1.53-.66-.74-.78-1.74-1.21-2.82-1.21s-2.08.43-2.82,1.21c-.41.43-.95.66-1.53.66-.2,0-.41-.03-.61-.09-.36-.11-.74-.16-1.11-.16-.67,0-1.34.18-1.93.52-.93.54-1.58,1.41-1.83,2.46-.19.78-.79,1.38-1.57,1.57-1.05.25-1.92.9-2.46,1.83-.54.93-.67,2.01-.36,3.04.23.77,0,1.59-.57,2.14-.78.74-1.21,1.74-1.21,2.81s.43,2.08,1.21,2.82c.58.55.8,1.37.57,2.14-.31,1.03-.18,2.11.36,3.04.54.93,1.41,1.58,2.46,1.83.78.19,1.38.79,1.57,1.57.25,1.05.9,1.92,1.83,2.46.59.34,1.26.52,1.93.52.37,0,.75-.06,1.11-.16.2-.06.4-.09.61-.09.58,0,1.13.24,1.53.66.74.78,1.74,1.21,2.82,1.21s2.08-.43,2.82-1.21c.41-.43.95-.66,1.53-.66.2,0,.41.03.61.09.36.11.74.16,1.11.16.67,0,1.34-.18,1.93-.52.93-.54,1.58-1.41,1.83-2.46.19-.78.79-1.38,1.57-1.57,1.05-.25,1.92-.9,2.46-1.83.54-.93.67-2.01.36-3.04-.23-.77,0-1.59.58-2.14.78-.74,1.21-1.74,1.21-2.82ZM28.53,21.46c.17.56.1,1.15-.2,1.66-.29.51-.77.86-1.34,1-1.43.34-2.53,1.44-2.87,2.87-.14.57-.49,1.05-1,1.34-.32.19-.69.28-1.06.28-.2,0-.41-.03-.61-.09-.36-.11-.74-.16-1.11-.16-1.05,0-2.08.44-2.81,1.21-.41.43-.95.66-1.54.66s-1.13-.24-1.54-.66c-.73-.77-1.75-1.21-2.81-1.21-.38,0-.76.06-1.11.16-.2.06-.4.09-.61.09-.37,0-.73-.1-1.06-.29-.51-.29-.86-.77-1-1.34-.34-1.43-1.44-2.53-2.87-2.87-.57-.14-1.05-.49-1.34-1-.29-.51-.36-1.1-.2-1.66.42-1.41.02-2.91-1.05-3.92-.43-.41-.66-.95-.66-1.54s.24-1.13.66-1.54c1.07-1.01,1.47-2.51,1.05-3.92-.17-.56-.1-1.15.2-1.66.29-.51.77-.86,1.34-1,1.43-.34,2.53-1.44,2.87-2.87.14-.57.49-1.05,1-1.34.32-.19.69-.28,1.05-.28.2,0,.41.03.61.09.36.11.74.16,1.11.16,1.05,0,2.08-.44,2.81-1.21.41-.43.95-.66,1.54-.66s1.14.24,1.54.66c.73.77,1.76,1.21,2.81,1.21.37,0,.75-.05,1.11-.16.2-.06.4-.09.61-.09.37,0,.73.1,1.06.29.51.29.86.77,1,1.34.34,1.43,1.44,2.53,2.87,2.87.57.14,1.05.49,1.34,1,.29.51.36,1.1.2,1.66-.42,1.41-.02,2.91,1.05,3.92.43.41.66.95.66,1.54s-.24,1.14-.66,1.54c-1.07,1.01-1.47,2.51-1.05,3.92Z"/>
    <path class="cls-1" d="M16,4.52c-6.33,0-11.49,5.15-11.49,11.49s5.15,11.49,11.49,11.49,11.49-5.15,11.49-11.49-5.15-11.49-11.49-11.49ZM16,6.27c5.36,0,9.73,4.36,9.73,9.73s-4.36,9.73-9.73,9.73-9.73-4.36-9.73-9.73S10.63,6.27,16,6.27Z"/>
  </g>
</svg>