<?xml version="1.0" encoding="utf-8"?>
<!-- Generator: Adobe Illustrator 26.1.0, SVG Export Plug-In . SVG Version: 6.00 Build 0)  -->
<svg version="1.1" id="layer" xmlns="http://www.w3.org/2000/svg" xmlns:xlink="http://www.w3.org/1999/xlink" x="0px" y="0px"
	 viewBox="0 0 606.6 140" style="enable-background:new 0 0 606.6 140;" xml:space="preserve">
<style type="text/css">
	.st0{fill:#000000;}
</style>
<path class="st0" d="M602.6,19.5c-2.4-4.7-5.8-8.7-10-11.9c-6.3-4.9-14-7.5-22-7.5H35.9C16.1,0,0,16.1,0,36v68.1
	c0,19.9,16.1,36,36,36h534.7c7.1,0,14.1-2.1,20-6.1c5.1-3.4,9.2-8,12-13.4c2.6-5.1,4-10.7,4-16.5V36
	C606.7,30.2,605.3,24.6,602.6,19.5z M553.3,91.8c-2.6,4-7.3,6.7-13.3,6.7c-11.3,0-19.3-9.3-19.3-22.2c0-15,9.7-24,20.7-24
	c6.9,0,11,3.4,13.2,7.1h0.2l0.5-6.1h10c-0.2,3.1-0.4,6.8-0.4,13.1v25.8c0,9.5-2,16.4-6.7,20.7s-11.3,5.5-17.6,5.5
	c-5.8,0-12-1.2-15.9-3.6l2.5-8.7c4.1,2.3,8.6,3.4,13.3,3.4c7.5,0,13.1-3.9,13.1-13.7v-3.9H553.3z M491.2,61.6
	c-4.1,0.1-7.7,2.8-9,6.7c-0.4,1.2-0.5,2.5-0.5,3.7v26.7h-11.6v-32c0-5.2-0.1-9.6-0.4-13.6h10.1l0.6,6.8h0.3c3.1-5,8.6-8,14.5-7.8
	c8,0,16.2,5.1,16.2,19.5v27h-11.5V73.1C499.9,66.5,497.4,61.6,491.2,61.6z M451.9,46.7c-3.3,0.2-6.2-2.3-6.4-5.6c0-0.2,0-0.4,0-0.5
	c0-3.6,2.9-6.4,6.5-6.4c3.6,0,6.4,2.9,6.4,6.4C458.4,44,455.9,46.7,451.9,46.7z M457.8,53.3v45.5h-11.6V53.3H457.8z M409.1,73.3
	c1.1-1.8,2.4-3.7,3.6-5.3l11-14.7h13.8l-16.8,18.6L440,98.8h-14.1l-13.1-20.1l-3.9,4.6v15.5h-11.5V32.4h11.5v40.9H409.1z M365,61.6
	c-4.1,0.1-7.8,2.8-9,6.7c-0.4,1.2-0.5,2.5-0.5,3.7v26.7h-11.6v-32c0-5.2-0.1-9.6-0.4-13.6h10.1l0.6,6.8h0.3c3.1-5,8.6-8,14.5-7.8
	c8,0,16.2,5.1,16.2,19.5v27h-11.5V73.1C373.7,66.5,371.2,61.6,365,61.6z M311,60.4c-4.3,0-8.5,1.2-12.2,3.4l-2.2-7.5
	c3.4-2.1,9.2-4,16.5-4c14.6,0,18.8,9.2,18.8,19.2v16.4c-0.1,3.7,0.2,7.3,0.6,10.9h-10.4l-0.8-5.1H321c-3.3,4-8.3,6.2-13.5,6.1
	c-9.2,0-14.3-6.6-14.3-13.6c0-11.5,10.2-17.3,27-17.2v-0.7C320.3,65.3,319.1,60.4,311,60.4z M242.8,36.7c5.5-0.9,11.1-1.4,16.7-1.3
	c8.5,0,13.7,1,18,4c4.2,2.5,6.7,7,6.5,11.8c0,5.8-3.6,11.1-10.5,13.6V65c6.6,1.7,12.7,6.9,12.7,15.6c0.1,5-2.2,9.8-6.1,13
	c-4.5,3.9-11.9,5.9-23.4,5.9c-4.7,0-9.4-0.3-14.1-0.8L242.8,36.7z M8,104.1V36C8,20.5,20.5,8,36,8h169v124H36
	C20.6,132,8.1,119.5,8,104.1z"/>
<path class="st0" d="M79.8,57.7c0,9.6,0.3,17.8,1,26.2h-0.2c-3.1-7.3-6.7-14.3-10.7-21.1l-16.3-27H40.5v63h10.6V76.2
	c0-10.4-0.1-18.7-0.6-26.8l0.3-0.1c3.4,7.5,7.1,14.7,11.3,21.8l16.5,27.7h11.8v-63H79.8V57.7z"/>
<path class="st0" d="M122.6,52.2c-14.6,0-22.2,11.9-22.2,24.5c0,13.9,8.7,23,23.5,23c5.4,0.1,10.8-0.9,15.9-2.8l-1.7-8
	c-4,1.5-8.3,2.2-12.6,2.1c-7.3,0-13.7-3.6-14-11.8h30.5c0.3-1.6,0.4-3.2,0.4-4.9C142.2,64.4,137.4,52.2,122.6,52.2z M131.4,71.2h-20
	c0.5-4.7,3.5-11.1,10.6-11.1C129.6,60.1,131.5,67,131.4,71.2L131.4,71.2z"/>
<path class="st0" d="M164.7,40.3L153.4,43v10.3h-6.5v8.6h6.5v21.4c0,6,1.1,10.1,3.6,12.7c2.1,2.3,5.7,3.7,9.9,3.7
	c2.8,0.1,5.6-0.3,8.3-1.1l-0.2-8.8c-1.5,0.4-3,0.6-4.5,0.6c-4.4,0-5.9-2.9-5.9-8.4V61.9h10.9v-8.6h-10.9V40.3z"/>
<path class="st0" d="M304.7,85c0,4.5,2.9,6.5,6.5,6.5c4,0.1,7.7-2.4,9-6.3c0.3-0.8,0.4-1.7,0.4-2.5v-6.3
	C312.4,76.3,304.7,78.1,304.7,85z"/>
<path class="st0" d="M274.2,80.2c0-7.3-6.4-10.3-14.3-10.3h-5.7v20.6c2,0.2,4,0.3,6.1,0.3C267.7,90.7,274.2,87.9,274.2,80.2z"/>
<path class="st0" d="M543.6,61c-6.5,0-11.2,5.7-11.2,14.9c0,7.8,3.9,14,11.1,14c4.3,0,8.1-2.8,9.3-6.9c0.3-1.4,0.5-2.7,0.5-4.1v-7.4
	c0-1-0.1-2.1-0.4-3.1C551.7,64.2,548.4,61,543.6,61z"/>
<path class="st0" d="M272.5,52.4c0-5.9-4.5-8.6-11.8-8.6c-2.2-0.1-4.4,0.1-6.5,0.5v17.2h5.9C268,61.5,272.5,57.7,272.5,52.4z"/>
</svg>
